<svg width="800" height="560" viewBox="0 0 800 560" fill="none" xmlns="http://www.w3.org/2000/svg">
  <defs>
    <linearGradient id="panel" x1="0" y1="0" x2="1" y2="1">
      <stop offset="0%" stop-color="#0B1220"/>
      <stop offset="100%" stop-color="#111827"/>
    </linearGradient>
  </defs>
  <rect width="800" height="560" rx="28" fill="#0F172A"/>
  <rect x="24" y="24" width="752" height="512" rx="20" fill="url(#panel)" stroke="#334155"/>

  <rect x="52" y="58" width="220" height="20" rx="10" fill="#14B8A6" fill-opacity="0.35"/>
  <rect x="52" y="90" width="340" height="12" rx="6" fill="#475569"/>

  <rect x="52" y="132" width="696" height="118" rx="18" fill="#0A101D" stroke="#273449"/>
  <circle cx="86" cy="166" r="16" fill="#0EA5E9" fill-opacity="0.35"/>
  <rect x="114" y="154" width="190" height="14" rx="7" fill="#94A3B8"/>
  <rect x="114" y="178" width="140" height="10" rx="5" fill="#64748B"/>
  <rect x="86" y="206" width="620" height="10" rx="5" fill="#475569"/>

  <rect x="52" y="268" width="336" height="240" rx="18" fill="#0A101D" stroke="#273449"/>
  <rect x="74" y="292" width="292" height="146" rx="14" fill="#101B30"/>
  <path d="M88 415L128 372L160 398L214 338L328 431" stroke="#22D3EE" stroke-width="6" stroke-linecap="round" stroke-linejoin="round"/>
  <rect x="74" y="452" width="130" height="12" rx="6" fill="#64748B"/>
  <rect x="74" y="474" width="230" height="10" rx="5" fill="#475569"/>

  <rect x="412" y="268" width="336" height="112" rx="18" fill="#0A101D" stroke="#273449"/>
  <rect x="436" y="294" width="108" height="30" rx="15" fill="#0EA5E9" fill-opacity="0.25"/>
  <rect x="556" y="294" width="164" height="30" rx="15" fill="#14B8A6" fill-opacity="0.25"/>
  <rect x="436" y="338" width="282" height="10" rx="5" fill="#475569"/>

  <rect x="412" y="396" width="336" height="112" rx="18" fill="#0A101D" stroke="#273449"/>
  <circle cx="446" cy="430" r="12" fill="#14B8A6" fill-opacity="0.4"/>
  <rect x="468" y="422" width="252" height="10" rx="5" fill="#64748B"/>
  <rect x="468" y="442" width="214" height="9" rx="4.5" fill="#475569"/>
  <rect x="468" y="460" width="180" height="9" rx="4.5" fill="#475569"/>
</svg>
