<svg width="960" height="720" viewBox="0 0 960 720" fill="none" xmlns="http://www.w3.org/2000/svg">
  <defs>
    <linearGradient id="bg" x1="0" y1="0" x2="1" y2="1">
      <stop offset="0%" stop-color="#0EA5E9" stop-opacity="0.20"/>
      <stop offset="100%" stop-color="#14B8A6" stop-opacity="0.10"/>
    </linearGradient>
    <linearGradient id="card" x1="0" y1="0" x2="1" y2="1">
      <stop offset="0%" stop-color="#0F172A"/>
      <stop offset="100%" stop-color="#1E293B"/>
    </linearGradient>
    <filter id="blur" x="-20%" y="-20%" width="140%" height="140%">
      <feGaussianBlur stdDeviation="20"/>
    </filter>
  </defs>

  <rect width="960" height="720" rx="32" fill="url(#bg)"/>
  <circle cx="130" cy="120" r="90" fill="#22D3EE" fill-opacity="0.25" filter="url(#blur)"/>
  <circle cx="820" cy="580" r="120" fill="#2DD4BF" fill-opacity="0.2" filter="url(#blur)"/>

  <rect x="92" y="88" width="776" height="544" rx="28" fill="url(#card)" stroke="#334155"/>

  <rect x="132" y="132" width="190" height="28" rx="14" fill="#0EA5E9" fill-opacity="0.25"/>
  <rect x="132" y="176" width="320" height="16" rx="8" fill="#475569"/>

  <rect x="132" y="230" width="330" height="340" rx="20" fill="#111827" stroke="#334155"/>
  <rect x="156" y="258" width="282" height="14" rx="7" fill="#64748B"/>
  <rect x="156" y="286" width="240" height="12" rx="6" fill="#475569"/>
  <rect x="156" y="338" width="282" height="172" rx="16" fill="#0B1220" stroke="#1E293B"/>
  <path d="M174 451L224 395L258 430L312 366L402 451" stroke="#22D3EE" stroke-width="6" stroke-linecap="round" stroke-linejoin="round"/>

  <rect x="498" y="230" width="330" height="164" rx="20" fill="#111827" stroke="#334155"/>
  <circle cx="542" cy="278" r="20" fill="#0EA5E9" fill-opacity="0.35"/>
  <rect x="574" y="266" width="228" height="16" rx="8" fill="#94A3B8"/>
  <rect x="574" y="292" width="166" height="12" rx="6" fill="#64748B"/>
  <rect x="542" y="330" width="258" height="12" rx="6" fill="#475569"/>

  <rect x="498" y="406" width="330" height="164" rx="20" fill="#111827" stroke="#334155"/>
  <rect x="532" y="438" width="120" height="32" rx="16" fill="#14B8A6" fill-opacity="0.25"/>
  <rect x="668" y="438" width="126" height="32" rx="16" fill="#0EA5E9" fill-opacity="0.25"/>
  <rect x="532" y="486" width="262" height="12" rx="6" fill="#64748B"/>
  <rect x="532" y="512" width="208" height="12" rx="6" fill="#475569"/>
</svg>
